<?xml version="1.0" encoding="utf-8"?>
<!-- Generator: Adobe Illustrator 15.0.2, SVG Export Plug-In . SVG Version: 6.00 Build 0)  -->
<!DOCTYPE svg PUBLIC "-//W3C//DTD SVG 1.1//EN" "http://www.w3.org/Graphics/SVG/1.1/DTD/svg11.dtd">
<svg version="1.1" id="レイヤー_1" xmlns="http://www.w3.org/2000/svg" xmlns:xlink="http://www.w3.org/1999/xlink" x="0px"
	 y="0px" width="1024px" height="1024px" viewBox="0 0 1024 1024" enable-background="new 0 0 1024 1024" xml:space="preserve">
<rect x="250" y="250" fill="none" stroke="#000000" stroke-miterlimit="10" width="512.5" height="512.5"/>
<rect x="275" y="275" fill="none" stroke="#000000" stroke-miterlimit="10" width="464.534" height="462"/>
<line fill="none" stroke="#000000" stroke-miterlimit="10" x1="100" y1="650" x2="1000.5" y2="650"/>
<circle stroke="#000000" stroke-miterlimit="10" cx="250" cy="650" r="12.5"/>
<circle stroke="#000000" stroke-miterlimit="10" cx="762.5" cy="650" r="12.5"/>
<g>
	<g>
		<line fill="none" stroke="#000000" stroke-miterlimit="10" x1="221.5" y1="256.035" x2="221.5" y2="643.969"/>
		<g>
			<path d="M221.5,250c-1.06,2.84-2.854,6.363-4.756,8.547l4.756-1.72l4.755,1.72C224.351,256.363,222.553,252.84,221.5,250z"/>
		</g>
		<g>
			<path d="M221.5,650c-1.06-2.84-2.854-6.357-4.756-8.547l4.756,1.726l4.755-1.726C224.351,643.637,222.553,647.16,221.5,650z"/>
		</g>
	</g>
</g>
<g>
	<g>
		<line fill="none" stroke="#000000" stroke-miterlimit="10" x1="221.5" y1="656.035" x2="221.5" y2="756.469"/>
		<g>
			<path d="M221.5,650c-1.06,2.846-2.854,6.363-4.756,8.553l4.756-1.726l4.755,1.726C224.351,656.363,222.553,652.844,221.5,650z"/>
		</g>
		<g>
			<path d="M221.5,762.5c-1.06-2.84-2.854-6.357-4.756-8.547l4.756,1.726l4.755-1.726C224.351,756.137,222.553,759.66,221.5,762.5z"
				/>
		</g>
	</g>
</g>
<text transform="matrix(1 0 0 1 5.9993 424.9998)" font-family="'GaramondPremrPro'" font-size="24">BASE.horizAxis.idtp  </text>
<text transform="matrix(1 0 0 1 5.9993 453.7996)" font-family="'GaramondPremrPro'" font-size="24">(OS/2.sTypoAscender)</text>
<text transform="matrix(1 0 0 1 5.9993 696.4998)" font-family="'GaramondPremrPro'" font-size="24">BASE.horizAxis.ideo  </text>
<text transform="matrix(1 0 0 1 5.9993 725.3005)" font-family="'GaramondPremrPro'" font-size="24"> (OS/2.sTypoDescender)</text>
<line fill="none" x1="250" y1="325" x2="275" y2="325"/>
<text transform="matrix(1 0 0 1 394.9993 124.7439)" font-family="'GaramondPremrPro'" font-size="24">BASE.vertAxis.idtp (head.unitPerEm)</text>
<g>
	<g>
		<line fill="none" stroke="#000000" stroke-miterlimit="10" x1="256.332" y1="149.255" x2="756.762" y2="149.255"/>
		<g>
			<path d="M250.297,149.255c2.84,1.06,6.357,2.854,8.547,4.756l-1.72-4.756l1.72-4.755
				C256.659,146.404,253.137,148.202,250.297,149.255z"/>
		</g>
		<g>
			<path d="M762.797,149.255c-2.846,1.06-6.363,2.854-8.553,4.756l1.726-4.756l-1.726-4.755
				C756.434,146.404,759.951,148.202,762.797,149.255z"/>
		</g>
	</g>
</g>
<line fill="none" stroke="#000000" stroke-miterlimit="10" x1="250" y1="237.5" x2="250" y2="134.5"/>
<line fill="none" stroke="#000000" stroke-miterlimit="10" x1="237.5" y1="762.5" x2="100" y2="762.5"/>
<line fill="none" stroke="#000000" stroke-miterlimit="10" x1="1000.5" y1="250" x2="770.5" y2="250"/>
<circle fill="#E83B18" stroke="#E83B18" stroke-miterlimit="10" cx="250" cy="650" r="12.5"/>
<line fill="none" stroke="#000000" stroke-miterlimit="10" x1="750" y1="737" x2="1000.5" y2="737"/>
<line fill="none" stroke="#000000" stroke-miterlimit="10" x1="750" y1="273.812" x2="1000.5" y2="273.812"/>
<line fill="none" stroke="#000000" stroke-miterlimit="10" x1="250" y1="774.5" x2="250" y2="851.5"/>
<line fill="none" stroke="#000000" stroke-miterlimit="10" x1="275" y1="749.5" x2="275" y2="851.5"/>
<line fill="none" stroke="#000000" stroke-miterlimit="10" x1="739.534" y1="749.5" x2="739.534" y2="851.5"/>
<g>
	<g>
		<line fill="none" stroke="#000000" stroke-miterlimit="10" x1="257.049" y1="800.5" x2="732.487" y2="800.5"/>
		<g>
			<path d="M250,800.5c3.316,1.056,7.431,2.854,9.981,4.758l-2.008-4.758l2.008-4.755C257.432,797.649,253.317,799.447,250,800.5z"
				/>
		</g>
		<g>
			<path d="M739.534,800.5c-3.317,1.056-7.433,2.854-9.981,4.758l2.009-4.758l-2.009-4.755
				C732.103,797.649,736.217,799.447,739.534,800.5z"/>
		</g>
	</g>
</g>
<g>
	<g>
		<line fill="none" stroke="#000000" stroke-miterlimit="10" x1="795.745" y1="656.035" x2="795.745" y2="730.967"/>
		<g>
			<path d="M795.745,650c-1.056,2.842-2.854,6.363-4.758,8.549l4.758-1.722l4.755,1.722
				C798.596,656.363,796.798,652.842,795.745,650z"/>
		</g>
		<g>
			<path d="M795.745,737c-1.056-2.84-2.854-6.361-4.758-8.547l4.758,1.722l4.755-1.722C798.596,730.636,796.798,734.16,795.745,737z
				"/>
		</g>
	</g>
</g>
<g>
	<g>
		<line fill="none" stroke="#000000" stroke-miterlimit="10" x1="795.257" y1="643.967" x2="795.257" y2="281.035"/>
		<g>
			<path d="M795.257,650c1.054-2.84,2.852-6.361,4.756-8.547l-4.756,1.722l-4.757-1.722C792.406,643.636,794.204,647.16,795.257,650
				z"/>
		</g>
		<g>
			<path d="M795.257,275c1.054,2.84,2.852,6.363,4.756,8.547l-4.756-1.72l-4.757,1.72C792.406,281.363,794.204,277.84,795.257,275z"
				/>
		</g>
	</g>
</g>
<g>
	<path d="M293.402,413.571c30.836,12.932,68.637,34.317,87.537,51.229l-19.396,27.354c-17.905-16.91-55.211-39.787-86.542-53.713
		L293.402,413.571z M288.43,708.509c23.872-39.294,57.691-105.939,82.56-163.138l25.864,20.396
		c-22.381,52.718-52.721,114.889-74.606,153.185c1.99,2.485,2.489,4.976,2.489,6.961c0,1.99-0.499,3.98-1.494,5.476L288.43,708.509z
		 M319.762,278.291c30.341,14.422,68.138,37.303,86.043,55.207l-19.896,26.856c-17.9-17.905-54.707-42.276-85.543-57.692
		L319.762,278.291z M735.06,634.898H600.771c27.354,38.791,77.092,64.158,138.765,74.106c-6.965,6.466-15.916,18.4-20.392,27.353
		c-69.632-15.416-123.348-49.736-151.694-101.459h-4.975c-21.387,39.786-64.161,76.095-148.71,101.959
		c-3.98-7.461-13.431-18.9-20.393-25.864c71.123-19.396,109.915-46.255,131.302-76.095H401.328v-27.854h138.267
		c4.479-12.432,6.964-24.369,8.456-36.802H424.209v-27.355h125.335v-35.812H439.13V399.646h258.129v107.429H582.368v35.812h130.308
		v27.355h-131.8c-0.995,12.433-3.48,24.865-6.962,36.802H735.06V634.898z M491.352,388.206v-37.797h-85.048v-28.351h85.048v-48.246
		l40.782,2.489c-0.495,3.479-2.984,5.966-9.45,6.961v38.795h87.038v-48.246l41.281,2.489c-0.496,3.479-2.981,5.966-9.45,6.961
		v38.795h92.512v28.351h-92.512v37.797h-31.831v-37.797h-87.038v37.797h-31.332V388.206z M469.467,481.214h80.077v-56.202h-80.077
		V481.214z M665.924,481.214v-56.202h-83.556v56.202H665.924z"/>
</g>
<text transform="matrix(1 0 0 1 780.5002 414.4998)" font-family="'GaramondPremrPro'" font-size="24">BASE.horizAxis.icft</text>
<text transform="matrix(1 0 0 1 780.5002 684.4998)" font-family="'GaramondPremrPro'" font-size="24">BASE.horizAxis.icfb</text>
<line fill="none" stroke="#000000" stroke-miterlimit="10" x1="775" y1="762.5" x2="1000.5" y2="762.5"/>
<text transform="matrix(1 0 0 1 823.4993 643.9656)" font-family="'KozGoPro-Regular-90ms-RKSJ-H'" font-size="24">欧文ベースライン</text>
<text transform="matrix(1 0 0 1 808.7434 795.7449)" font-family="'KozGoPro-Regular-90ms-RKSJ-H'" font-size="24">仮想ボディ下</text>
<g>
	<g>
		<line fill="none" stroke="#000000" stroke-miterlimit="10" x1="256.535" y1="833.5" x2="268.965" y2="833.5"/>
		<g>
			<path d="M250.5,833.5c2.84,1.055,6.362,2.853,8.547,4.757l-1.72-4.757l1.72-4.755C256.864,830.649,253.34,832.447,250.5,833.5z"
				/>
		</g>
		<g>
			<path d="M275,833.5c-2.84,1.055-6.363,2.853-8.547,4.757l1.72-4.757l-1.72-4.755C268.637,830.649,272.16,832.447,275,833.5z"/>
		</g>
	</g>
</g>
<text transform="matrix(1 0 0 1 285.4993 851.4998)" font-family="'GaramondPremrPro'" font-size="24">BASE.vertAxis.icfb</text>
<text transform="matrix(1 0 0 1 550.2502 833.4998)" font-family="'GaramondPremrPro'" font-size="24">BASE.vertAxis.icft</text>
<line fill="none" stroke="#000000" stroke-miterlimit="10" x1="499" y1="134.5" x2="499" y2="924.5"/>
<line fill="none" stroke="#231815" stroke-miterlimit="10" x1="761.5" y1="235.5" x2="761.5" y2="134.5"/>
<g>
	<g>
		<line fill="none" stroke="#231815" stroke-miterlimit="10" x1="255.035" y1="225.5" x2="492.965" y2="225.5"/>
		<g>
			<path fill="#231815" d="M249,225.5c2.84,1.058,6.359,2.854,8.547,4.756l-1.72-4.756l1.72-4.755
				C255.364,222.649,251.84,224.447,249,225.5z"/>
		</g>
		<g>
			<path fill="#231815" d="M499,225.5c-2.844,1.058-6.363,2.854-8.551,4.756l1.724-4.756l-1.724-4.755
				C492.637,222.649,496.156,224.447,499,225.5z"/>
		</g>
	</g>
</g>
<g>
	<g>
		<line fill="none" stroke="#231815" stroke-miterlimit="10" x1="505.031" y1="189.744" x2="755.465" y2="189.744"/>
		<g>
			<path fill="#231815" d="M499,189.744c2.84,1.058,6.359,2.854,8.547,4.756l-1.724-4.756l1.724-4.755
				C505.364,186.893,501.84,188.691,499,189.744z"/>
		</g>
		<g>
			<path fill="#231815" d="M761.5,189.744c-2.844,1.058-6.363,2.854-8.551,4.756l1.724-4.756l-1.724-4.755
				C755.137,186.893,758.656,188.691,761.5,189.744z"/>
		</g>
	</g>
</g>
<text transform="matrix(1 0 0 1 530.5002 177.7439)" font-family="'GaramondPremrPro'" font-size="24">vhea.vertTypoAscender</text>
<text transform="matrix(1 0 0 1 510.4998 904.4998)" font-family="'KozGoPro-Regular-90ms-RKSJ-H'" font-size="24">縦書きベースライン</text>
<text transform="matrix(1 0 0 1 262.7502 213.4998)" font-family="'GaramondPremrPro'" font-size="24">vhea.vertTypoDescender</text>
<line fill="none" stroke="#000000" stroke-miterlimit="10" x1="160.5" y1="237.5" x2="160.5" y2="134.5"/>
<text transform="matrix(1 0 0 1 100.5002 124.4998)" font-family="'GaramondPremrPro'" font-size="24">vhea.vertLineGap</text>
<g>
	<g>
		<line fill="none" stroke="#000000" stroke-miterlimit="10" x1="242.965" y1="225.5" x2="166.535" y2="225.5"/>
		<g>
			<path d="M249,225.5c-2.84-1.054-6.363-2.852-8.547-4.756l1.72,4.756l-1.72,4.755C242.637,228.35,246.16,226.552,249,225.5z"/>
		</g>
		<g>
			<path d="M160.5,225.5c2.84-1.054,6.362-2.852,8.547-4.756l-1.72,4.756l1.72,4.755C166.864,228.351,163.34,226.553,160.5,225.5z"
				/>
		</g>
	</g>
</g>
<circle stroke="#000000" stroke-miterlimit="10" cx="499" cy="250" r="12.5"/>
<line fill="none" stroke="#000000" stroke-miterlimit="10" x1="237.5" y1="846.5" x2="100" y2="846.5"/>
<g>
	<g>
		<line fill="none" stroke="#000000" stroke-miterlimit="10" x1="221.5" y1="767.007" x2="221.5" y2="841.997"/>
		<g>
			<path d="M221.5,762.5c-1.06,2.125-2.854,4.752-4.756,6.387l4.756-1.288l4.755,1.288C224.351,767.252,222.553,764.625,221.5,762.5
				z"/>
		</g>
		<g>
			<path d="M221.5,846.5c-1.06-2.119-2.854-4.747-4.756-6.382l4.756,1.288l4.755-1.288C224.351,841.75,222.553,844.381,221.5,846.5z
				"/>
		</g>
	</g>
</g>
<text transform="matrix(1 0 0 1 5.9993 812.9998)" font-family="'GaramondPremrPro'" font-size="24">OS/2.sTypoLineGap</text>
<text transform="matrix(1 0 0 1 810.5002 724.4998)" font-family="'KozGoPro-Regular-90ms-RKSJ-H'" font-size="24">平均字面下</text>
<text transform="matrix(1 0 0 1 830.5002 234.4998)" font-family="'KozGoPro-Regular-90ms-RKSJ-H'" font-size="24">仮想ボディ上</text>
<text transform="matrix(1 0 0 1 830.5002 304.4998)" font-family="'KozGoPro-Regular-90ms-RKSJ-H'" font-size="24">平均字面上</text>
</svg>
